Patient4_TMGait_0pt5_01_right_32_EMG.mot
version=1
nRows=30
nColumns=33
inDegrees=no
endheader
time	1LAddLong	2LGlutMax	3LGlutMed	4LIliopsoas	5LSemiMemb	6LBicFemLong	7LRecFem	8LVastMed	9LVastLat	10LGasMed	11LTibAnt	12lTibPost	13LPeroneusLong	14LSol	15LExtDigLong	16LFlexDigLong	17RAddLong	18RGlutMax	19RGlutMed	20RIliopsoas	21RSemiMemb	22RBicFemLong	23RRecFem	24RVastMed	25RVastLat	26RGasMed	27RTibAnt	28RTibPost	29RPeroneusLong	30RSol	31RExtDigLong	32RFlexDigLong
43	-0.025635	-0.07782	-0.001221	0.007629	0.010986	0.15411	0.061951	-0.010681	0.23132	0.010223	-0.48248	0.013123	0.044403	0.28015	0.19714	-0.001678	0.025177	-0.14832	0.03952	-0.017548	0.057678	-0.003967	0.072021	0.004425	-0.020752	0.023499	-0.69778	0.001221	0.17761	-0.32303	-0.003357	-0.005188
43.001	-0.006104	-0.10605	-0.028839	0.006409	-0.058746	-0.016785	0.19028	0.019073	-0.23361	0.015869	-0.63919	0.010681	0.096588	0.26077	-0.43076	-0.0177	0.033569	-0.12085	0.009308	-0.077972	0.058899	-0.002899	0.077057	-0.005188	-0.013275	0.021973	-0.69794	-0.000305	0.15564	-0.21439	-0.004883	-0.00946
43.002	-0.018005	-0.15717	-0.05722	0.009918	-0.05661	0.036926	0.224	0.041199	-0.60837	0.001068	-0.55405	0.005188	0.11414	0.14343	-0.40375	-0.038605	0.025635	-0.038452	0.17334	-0.15396	0.050049	0.002747	0.02594	-0.054474	-0.02533	0.01297	-0.10544	0.003357	-0.0177	-0.004272	-0.001373	-0.011597
43.003	-0.021057	-0.12894	-0.005493	0.011902	0.006104	0.17166	0.168	0.047455	-0.85022	0.007324	-0.3714	0.009308	0.087738	0.082092	-0.76767	-0.046082	0.029602	-0.007172	0.44067	-0.15259	0.052032	0.009918	-0.041199	-0.16708	-0.023041	0.017548	0.20035	0.013123	-0.11795	0.043945	-0.002441	-0.014648
43.004	-0.014191	-0.11612	-0.054779	0.014191	0.014954	0.31998	0.16007	0.037384	-0.84625	0.002136	-0.12421	0.007019	0.048981	0.093689	-0.071411	-0.052338	0.015717	-0.0737	0.36057	-0.07843	0.05127	-0.002899	-0.14023	-0.1445	0.013733	0.013885	0.45776	0.001984	-0.16968	0.045471	-0.000916	-0.01709
43.005	-0.000458	-0.1915	-0.075684	0.014343	0.011597	0.37201	0.17364	0.036316	-0.87128	-0.01236	-0.16144	0.011292	0.079498	0.16113	0.14557	-0.061493	0.013123	-0.070038	-0.080872	-0.068817	0.045929	-0.014191	-0.066681	-0.036621	-0.002136	0.006409	0.44495	-0.003662	-0.0177	0.14832	-0.003204	-0.024261
43.006	0.007629	-0.14008	-0.085449	0.001678	0.036163	0.058746	0.09491	-0.012665	-0.76721	-0.030518	-0.052643	0.007935	0.10773	0.17563	-0.66498	-0.073242	0.006561	-0.016785	-0.059662	-0.010376	0.050507	0.011139	-0.12985	-0.022888	0.02121	0.001831	0.28061	-0.001831	0.073395	0.25513	-0.003204	-0.023804
43.007	0.037537	-0.15671	-0.14038	0.011902	0.062561	-0.10208	0.053253	-0.033417	-0.49255	-0.019989	0.010223	0.005188	0.029144	0.13748	-0.47318	-0.066833	-0.013123	-0.004425	-0.11047	0.10025	0.042725	0.002747	-0.14725	0.001526	0.029602	0.009613	-0.15381	-0.001373	0.036469	0.12634	-0.002594	-0.03418
43.008	0.052032	-0.12116	-0.18997	0.005798	0.11643	0.13245	-0.055389	-0.002899	-0.16571	-0.022888	0.048981	0.005035	-0.045776	0.18768	-0.45975	-0.064697	-0.005646	-0.007935	-0.062561	0.24353	0.042267	-0.003815	-0.16693	0.041199	0.011597	0.005951	-0.20416	-0.000763	-0.18127	0.050354	-0.002441	-0.035858
43.009	0.039368	-0.10452	-0.22827	0.022888	0.077972	0.14954	-0.10803	-0.001984	0.14771	-0.022888	-0.014496	0.006104	-0.094757	0.19898	-0.17136	-0.039368	-0.023346	-0.007324	0.001984	0.22629	0.056763	0.016174	-0.16083	-0.049896	-0.002747	0.003967	0.001984	0.003204	-0.19836	0.015411	-0.001526	-0.029907
43.01	0.032043	-0.071259	-0.15137	0.016022	-0.036469	0.12085	-0.016937	-0.02182	0.27847	-0.04715	-0.16113	0.001221	-0.01358	0.11826	0.20142	-0.040436	-0.009766	0.033722	0.22797	0.11429	0.070038	0.03891	-0.097809	-0.014954	0.002136	0.011749	0.040741	0.001984	-0.030518	0.079346	-0.002899	-0.036316
43.011	0.010681	0.014496	0.085144	0.007935	-0.064392	0.03891	0.16464	-0.028381	0.28641	-0.03479	-0.20523	-0.005646	0.020752	0.010223	0.023346	-0.049591	-0.010681	-0.056763	0.30472	0.018311	0.071411	0.041046	-0.10056	0.021362	-0.007172	0.012665	-0.18707	0.002289	-0.094452	0.014648	-0.00351	-0.030212
43.012	-0.018005	-0.017548	0.14664	0.009918	-0.047913	-0.35629	0.26688	0.007935	0.076752	-0.003815	-0.15762	0.004272	-0.004272	-0.001831	-0.088654	-0.03891	-0.036011	-0.080719	0.38376	-0.086975	0.10254	0.072937	-0.096741	-0.045166	-0.006714	0.014038	-0.41473	0.004272	-0.084381	-0.04425	-0.001068	-0.036469
43.013	-0.027313	0.076447	0.098724	-0.010681	-0.001831	-0.50751	0.19318	0.061646	-0.046234	0.003357	-0.11444	-0.006409	-0.050659	0.08667	0.22827	-0.048981	-0.053558	-0.013733	0.44464	-0.029755	0.10162	0.076141	-0.14084	-0.005798	-0.001526	0.009918	-0.35111	0.00473	-0.024261	0.053558	-0.005188	-0.026855
43.014	-0.01709	0.12573	0.049438	0.005798	0.043793	-0.42068	0.14496	0.063171	-0.06012	0.022888	-0.046539	0	-0.10788	0.094604	0.050201	-0.044708	-0.054016	-0.092621	0.34485	0.038147	0.080872	0.064392	-0.075226	-0.049591	-0.0177	0.01358	-0.066681	0.001831	0.045319	0.057068	-0.002441	-0.029297
43.015	-0.007782	0.15472	0.016022	0.028839	0.029907	-0.32898	0.053406	0.011597	-0.13473	0.023346	0.023346	0	-0.11032	0.026398	-0.089569	-0.060425	-0.037842	-0.16739	0.18707	0.083313	0.064087	0.063171	-0.10269	-0.005646	-0.007782	0.015259	0.54901	0.00473	0.000305	0.010529	0.000153	-0.027924
43.016	0.006104	0.18784	-0.027466	0.019073	-0.018921	-0.21881	0.018311	-0.03067	-0.15533	-0.02655	0.042572	-0.001068	-0.080109	-0.021057	0.15778	-0.032501	-0.041504	-0.13168	0.29892	0.053101	0.052643	0.011597	-0.099945	0.008698	-0.019684	0.007629	0.63492	0.002441	-0.17593	0.018921	-0.002289	-0.031128
43.017	0.015564	0.24963	0.11719	0.015411	0.045013	-0.071869	0.009155	-0.056915	-0.15961	-0.046692	0.06546	-0.00885	-0.090332	-0.047913	0.19516	-0.020294	-0.028076	-0.18875	0.29678	0.007477	0.046387	-0.1091	-0.057068	0.01297	-0.024567	0.001984	0.29053	0.000916	-0.31601	0.019836	-0.002899	-0.02594
43.018	0.01709	0.2504	0.050659	0.005798	0.031128	0.041656	-0.068817	-0.043945	-0.016632	-0.042267	0.15411	0.004272	-0.15884	0.007172	0.35217	-0.006409	0.009308	-0.1857	0.27664	-0.054779	0.02533	-0.1648	-0.065002	-0.018463	-0.046844	0.005341	0.15228	-0.004425	-0.17425	-0.015717	0.001068	-0.018005
43.019	0.016327	0.23468	0.030975	0.014801	0.029449	0.079651	-0.017395	-0.004272	-0.020752	-0.051422	0.13092	-0.003662	-0.15503	0.075226	0.26611	-0.023651	0.041199	-0.18799	0.39673	-0.065155	0.011597	-0.14008	-0.017548	-0.02121	-0.024872	0.012665	0.20966	0.002441	0.066681	-0.10254	0.007019	-0.012207
43.02	-0.001373	0.21362	0.023956	0.007629	0.007629	0.21164	0.1059	0.005341	0.06012	-0.036011	0.033417	-0.004272	-0.20935	0.15411	0.55145	-0.009918	0.008087	-0.21576	0.43533	-0.049896	0.052643	-0.10773	-0.009918	-0.02121	-0.041962	0.006714	-0.1358	0.003815	-0.044556	-0.069427	-0.004425	-0.016022
43.021	-0.00824	0.22598	-0.2182	0.012665	-0.034027	0.40176	0.20325	0.020447	0.15747	-0.034027	0.023804	-0.003662	-0.19852	0.17517	0.48218	-0.002899	0.039673	-0.2298	0.26459	0.047302	0.073853	0.017395	-0.038452	-0.086365	-0.042725	-0.00885	-0.19684	0.004425	-0.20966	0.055389	-0.006409	-0.019073
43.022	0.00061	0.31433	-0.4483	0.005493	-0.11459	0.45181	0.26489	0.021515	0.10773	-0.059967	0.31342	-0.009766	-0.18097	0.22201	0.35568	-0.002441	0.050812	-0.18875	0.14145	0.12604	0.068512	0.06897	-0.041199	-0.079041	-0.038452	-0.019379	-0.3067	-0.005035	-0.36224	0.25513	-0.00351	-0.020142
43.023	-0.006561	0.27451	-0.16098	0.000153	-0.11169	0.35294	0.22003	0.019379	0.077209	-0.09079	0.4628	-0.005188	-0.079651	0.27679	0.7608	0.005188	0.006104	-0.31143	0.27847	0.091858	0.10132	0.060883	-0.093842	-0.031433	-0.024109	-0.000458	-0.46906	-0.011749	-0.26962	0.10346	-0.006104	-0.027008
43.024	-0.016785	0.23529	0.4335	0.001373	-0.027008	0.38116	0.098572	-0.010681	0.13886	-0.087891	0.2771	-0.011749	0.031128	0.31708	0.79865	-0.014954	-0.006866	-0.28931	0.42954	-0.008545	0.13886	-0.004883	-0.092468	-0.060883	-0.043488	0.002136	0.11261	-0.00824	0.063477	-0.08255	-0.001526	-0.016632
43.025	-0.002136	0.15228	0.57907	0.016022	-0.013123	0.38773	0.17349	-0.048065	0.054779	-0.045624	0.095673	-0.005951	0.034943	0.28183	-0.31296	-0.023193	-0.027313	-0.30838	0.39948	-0.080566	0.13138	0.11612	-0.14404	-0.081635	-0.016785	0.019836	-0.047607	-0.001984	0.46097	-0.24551	-0.001373	-0.020447
43.026	0.006256	0.07431	0.48859	0.016022	-0.045319	0.32181	0.1535	-0.040436	0.062714	0.006409	-0.043793	-0.013733	-0.027771	0.1355	-0.34393	-0.045929	-0.020447	-0.35278	0.34256	-0.06485	0.079803	0.078888	-0.20996	-0.042267	0.014801	0.016327	-0.30289	0.007629	0.3923	-0.29343	-0.001526	-0.007782
43.027	0.017548	0.070038	0.30075	0.009766	-0.075226	0.26504	0.080566	-0.037384	0.076599	0.023651	-0.050659	-0.013275	-0.018158	-0.099792	-1.2412	-0.050964	-0.002899	-0.2626	0.37811	-0.078735	0.046082	0.094452	-0.19501	-0.030975	0.00946	0.011597	0.69977	-0.003052	0.038605	-0.29755	-0.002747	-0.005188
43.028	0.011902	0.13947	0.19791	0.024719	-0.033722	0.048065	0.097351	-0.036163	0.06546	-0.007629	-0.053253	-0.014038	0.031433	-0.18387	-1.0756	-0.082855	0.027771	-0.24246	0.41397	-0.070801	0.044861	0.081024	-0.20844	-0.036926	0.025024	-0.002747	1.6133	0.003357	-0.25879	-0.14297	-0.00473	-0.008545
43.029	0.001984	0.14084	0.002441	0.023651	0.033722	-0.33005	0.15717	-0.034637	0.019531	-0.008087	-0.063171	-0.007019	-0.013275	-0.30991	-0.80856	-0.082092	0.07843	-0.24338	0.41016	-0.028992	0.073547	0.050354	-0.15518	-0.05188	0.018311	-0.00412	1.7921	-0.006714	-0.33325	-0.053253	-0.010681	-0.009613
